<svg width="18" height="12" viewBox="0 0 18 12" fill="none" xmlns="http://www.w3.org/2000/svg">
<path d="M7.94141 0.5C8.2588 0.5 8.56252 0.567284 8.85156 0.700521C9.21265 0.887321 9.50089 1.18301 9.66016 1.53035C9.76138 1.77056 9.92015 2.4888 9.9209 2.50521C10.0669 3.23315 10.1509 4.38224 10.1631 5.66968L10.165 5.99373C10.165 7.34273 10.079 8.57311 9.94922 9.37484L9.83496 9.87345C9.77171 10.1374 9.68921 10.438 9.60254 10.5914C9.28516 11.1527 8.66418 11.4998 8 11.5H7.94141C7.51021 11.4868 6.60702 11.1419 6.59863 11.1267C5.13464 10.5636 2.31031 8.86403 1.00586 7.65251L0.626953 7.28906C0.527761 7.19055 0.415926 7.07382 0.34668 6.98291C0.115431 6.70223 2.07582e-05 6.35448 0 6.00716C0 5.61955 0.1297 5.25906 0.375 4.96427L0.764648 4.57845L0.851562 4.49609C2.03521 3.31976 5.12647 1.39661 6.74316 0.807943L6.9873 0.722005C7.28088 0.625566 7.69195 0.51068 7.94141 0.5ZM16.4971 4.60889C17.3269 4.60905 17.9998 5.23188 18 6C18 6.7683 17.3271 7.39185 16.4971 7.39201L12.7979 7.09212C12.1466 7.09212 11.6182 6.60281 11.6182 6C11.6184 5.39637 12.1467 4.90877 12.7979 4.90877L16.4971 4.60889Z" fill="#F9F8FC"/>
</svg>
