<svg width="14" height="16" viewBox="0 0 14 16" fill="none" xmlns="http://www.w3.org/2000/svg">
<g opacity="0.3">
<path d="M10.9325 4.4474C11.4603 4.453 12.1932 4.4554 12.8155 4.453C13.1343 4.4522 13.2963 4.0498 13.076 3.8074C12.2764 2.929 10.8462 1.357 10.027 0.457802C9.80061 0.209002 9.40539 0.380202 9.40539 0.725002V2.8338C9.40539 3.7186 10.0951 4.4474 10.9325 4.4474Z" fill="#F9F8FC"/>
<path fill-rule="evenodd" clip-rule="evenodd" d="M9.28276 8.712C9.06319 8.944 8.70734 8.944 8.48777 8.712L7.28393 7.432V11.296C7.28393 11.624 7.03407 11.888 6.72365 11.888C6.40565 11.888 6.1558 11.624 6.1558 11.296V7.432L4.95195 8.712C4.73238 8.944 4.37653 8.944 4.15696 8.712C3.93739 8.48 3.93739 8.104 4.15696 7.872L6.32236 5.568C6.37536 5.512 6.43594 5.472 6.50408 5.44C6.57222 5.408 6.64793 5.392 6.72365 5.392C6.79936 5.392 6.8675 5.408 6.93564 5.44C7.00379 5.472 7.06436 5.512 7.11736 5.568L9.29033 7.872C9.5099 8.104 9.5099 8.48 9.28276 8.712ZM13.1517 5.616C12.8261 5.616 12.44 5.624 12.2053 5.624C11.857 5.624 11.4027 5.616 10.8349 5.616C9.44176 5.608 8.30606 4.408 8.30606 2.944V0.368C8.30606 0.168 8.14706 0 7.95778 0H3.91468C2.02184 0 0.5 1.624 0.5 3.608V12.232C0.5 14.312 2.09755 16 4.07368 16H10.0929C11.9706 16 13.5 14.392 13.5 12.408V5.976C13.5 5.776 13.341 5.616 13.1517 5.616Z" fill="#F9F8FC"/>
</g>
</svg>
