<svg width="16" height="16" viewBox="0 0 16 16" fill="none" xmlns="http://www.w3.org/2000/svg">
<path fill-rule="evenodd" clip-rule="evenodd" d="M5.93217 2.38905C5.93217 1.72162 6.41662 1.17919 7.01147 1.17919H8.98881C9.58366 1.17919 10.0681 1.72162 10.0681 2.38905V2.40791C9.43701 2.34738 8.74988 2.31751 8.00014 2.31751C7.24957 2.31751 6.56244 2.34738 5.93217 2.40791V2.38905ZM0.178098 7.04214C2.32764 8.30624 5.11239 9.00354 8.01662 9.0059C10.9151 9.00354 13.6924 8.3086 15.8403 7.05001C15.4053 4.48487 14.0335 3.12015 11.3039 2.58951V2.38905C11.3039 1.07149 10.265 0 8.98881 0H7.01147C5.73526 0 4.69633 1.07149 4.69633 2.38905V2.58951C1.97089 3.11936 0.599932 4.48015 0.161621 7.03586C0.167388 7.039 0.173155 7.039 0.178098 7.04214Z" fill="#5C5ADC"/>
<path fill-rule="evenodd" clip-rule="evenodd" d="M8.61792 10.2149V11.9153C8.61792 12.2407 8.34109 12.5049 8 12.5049C7.65891 12.5049 7.38208 12.2407 7.38208 11.9153V10.2141C4.69537 10.1284 2.12647 9.48849 0.0197734 8.38083C0.00741504 8.63161 0 8.88946 0 9.15832C0 14.21 2.09351 16 8 16C13.9065 16 16 14.21 16 9.15832C16 8.89575 15.9934 8.6434 15.9819 8.39892C13.8719 9.50028 11.303 10.1339 8.61792 10.2149Z" fill="#5C5ADC"/>
</svg>
