<svg width="47" height="56" viewBox="0 0 47 56" fill="none" xmlns="http://www.w3.org/2000/svg">
<path opacity="0.5" d="M23.2077 0.130859C31.5114 0.130859 38.1931 6.77284 38.1931 14.9712V19.1875C42.8536 20.6659 46.25 24.9535 46.25 30.0747V43.6501C46.25 49.99 41.0784 55.1306 34.7024 55.1309H11.8002C5.42155 55.1305 0.25 49.99 0.25 43.6501V30.0747C0.25 24.9535 3.64913 20.6659 8.30687 19.1875V14.9712C8.33436 6.77319 15.0145 0.13142 23.2077 0.130859ZM23.2368 31.439C21.917 31.439 20.8454 32.5039 20.8454 33.8157V39.8823C20.8456 41.2212 21.9171 42.2859 23.2368 42.2859C24.5837 42.2856 25.6544 41.221 25.6546 39.8823V33.8157C25.6546 32.5041 24.5838 31.4392 23.2368 31.439ZM23.2632 4.91382C17.682 4.9141 13.1465 9.39495 13.1188 14.9148V18.594H33.3812V14.9712C33.3812 9.42364 28.8448 4.91382 23.2632 4.91382Z" fill="#F9F8FC"/>
</svg>
