<svg width="21" height="23" viewBox="0 0 21 23" fill="none" xmlns="http://www.w3.org/2000/svg">
<path d="M12.2607 20.7665L17.721 17.614C18.3039 17.2775 18.5947 17.1092 18.8067 16.8738C18.9942 16.6655 19.136 16.4202 19.2227 16.1536C19.3203 15.853 19.3203 15.5172 19.3203 14.8473V8.53311C19.3203 7.8632 19.3203 7.52737 19.2227 7.22681C19.136 6.96025 18.9942 6.71471 18.8067 6.50643C18.5957 6.27204 18.3054 6.10448 17.7276 5.77086L12.2598 2.61402C11.6769 2.27749 11.386 2.10956 11.0762 2.0437C10.802 1.98543 10.5186 1.98543 10.2444 2.0437C9.93458 2.10956 9.64275 2.27749 9.05986 2.61402L3.59859 5.76709C3.01638 6.10322 2.72551 6.27116 2.51367 6.50643C2.32613 6.71471 2.1845 6.96025 2.09789 7.22681C2 7.52808 2 7.86479 2 8.53785V14.8428C2 15.5159 2 15.8523 2.09789 16.1536C2.1845 16.4202 2.32613 16.6655 2.51367 16.8738C2.72563 17.1092 3.01672 17.2775 3.59961 17.614L9.05986 20.7665C9.64274 21.103 9.93459 21.271 10.2444 21.3369C10.5186 21.3952 10.802 21.3952 11.0762 21.3369C11.386 21.271 11.6779 21.103 12.2607 20.7665Z" stroke="white" stroke-width="3" stroke-linecap="round" stroke-linejoin="round"/>
<path d="M7.66016 11.6902C7.66016 13.347 9.0033 14.6902 10.6602 14.6902C12.317 14.6902 13.6602 13.347 13.6602 11.6902C13.6602 10.0333 12.317 8.69019 10.6602 8.69019C9.0033 8.69019 7.66016 10.0333 7.66016 11.6902Z" stroke="white" stroke-width="3" stroke-linecap="round" stroke-linejoin="round"/>
</svg>
