<svg width="64" height="64" viewBox="0 0 64 64" fill="none" xmlns="http://www.w3.org/2000/svg">
  <!-- Фон -->
  <rect width="64" height="64" rx="8" fill="#2D2D30"/>
  
  <!-- Щит -->
  <path d="M32 8C24 8 18 12 18 18V32C18 44 32 56 32 56C32 56 46 44 46 32V18C46 12 40 8 32 8Z" fill="#4A90E2"/>
  <path d="M32 12C26 12 22 15 22 20V30C22 38 32 48 32 48C32 48 42 38 42 30V20C42 15 38 12 32 12Z" fill="#357ABD"/>
  
  <!-- Центральный элемент -->
  <circle cx="32" cy="28" r="6" fill="#FFD700"/>
  <circle cx="32" cy="28" r="3" fill="#FFA500"/>
  
  <!-- Эффект свечения -->
  <circle cx="32" cy="32" r="16" fill="url(#shieldGlow)" opacity="0.2"/>
  
  <defs>
    <radialGradient id="shieldGlow" cx="50%" cy="50%" r="50%">
      <stop offset="0%" style="stop-color:#4A90E2;stop-opacity:0.8" />
      <stop offset="100%" style="stop-color:#4A90E2;stop-opacity:0" />
    </radialGradient>
  </defs>
</svg>