<svg width="64" height="64" viewBox="0 0 64 64" fill="none" xmlns="http://www.w3.org/2000/svg">
  <!-- Фон -->
  <rect width="64" height="64" rx="8" fill="#2D2D30"/>
  
  <!-- Золотой меч (Legendary) -->
  <path d="M32 4L36 8V28H28V8L32 4Z" fill="#FFD700"/>
  <path d="M30 28H34V32H30V28Z" fill="#B8860B"/>
  <path d="M28 32H36V38H28V32Z" fill="#DAA520"/>
  <path d="M30 38H34V44H30V38Z" fill="#B8860B"/>
  
  <!-- Лезвие с градиентом -->
  <path d="M32 4L34 6V26H30V6L32 4Z" fill="url(#goldGradient)"/>
  
  <!-- Драгоценные камни на рукояти -->
  <circle cx="30" cy="35" r="2" fill="#E74C3C"/>
  <circle cx="34" cy="35" r="2" fill="#3498DB"/>
  
  <!-- Эффект свечения -->
  <circle cx="32" cy="24" r="18" fill="url(#legendaryGlow)" opacity="0.4"/>
  
  <!-- Искры вокруг меча -->
  <circle cx="20" cy="16" r="1" fill="#FFD700" opacity="0.8"/>
  <circle cx="44" cy="20" r="1" fill="#FFD700" opacity="0.6"/>
  <circle cx="18" cy="32" r="1" fill="#FFD700" opacity="0.7"/>
  <circle cx="46" cy="28" r="1" fill="#FFD700" opacity="0.9"/>
  
  <defs>
    <linearGradient id="goldGradient" x1="0%" y1="0%" x2="100%" y2="100%">
      <stop offset="0%" style="stop-color:#FFD700;stop-opacity:1" />
      <stop offset="50%" style="stop-color:#FFA500;stop-opacity:1" />
      <stop offset="100%" style="stop-color:#FFD700;stop-opacity:1" />
    </linearGradient>
    <radialGradient id="legendaryGlow" cx="50%" cy="50%" r="50%">
      <stop offset="0%" style="stop-color:#FFD700;stop-opacity:0.8" />
      <stop offset="100%" style="stop-color:#FFD700;stop-opacity:0" />
    </radialGradient>
  </defs>
</svg>