<svg width="16" height="14" viewBox="0 0 16 14" fill="none" xmlns="http://www.w3.org/2000/svg">
<path opacity="0.3" fill-rule="evenodd" clip-rule="evenodd" d="M15.8298 5.83134C15.7215 5.93656 15.5745 5.99669 15.4197 5.99669C14.8472 5.99669 14.383 6.44766 14.383 6.99634C14.383 7.54878 14.8418 7.99749 15.4089 8.0035C15.7284 8.00651 16 8.22297 16 8.53339V10.4613C16 12.084 14.646 13.4001 12.9749 13.4001H10.4526C10.1919 13.4001 9.98066 13.1949 9.98066 12.9416V11.3181C9.98066 11.0024 9.72534 10.7544 9.40039 10.7544C9.08317 10.7544 8.82012 11.0024 8.82012 11.3181V12.9416C8.82012 13.1949 8.6089 13.4001 8.34894 13.4001H3.02515C1.3617 13.4001 0 12.0848 0 10.4613V8.53339C0 8.22297 0.271567 8.00651 0.591103 8.0035C1.15899 7.99749 1.61702 7.54878 1.61702 6.99634C1.61702 6.46269 1.16828 6.05682 0.580271 6.05682C0.425532 6.05682 0.27853 5.99669 0.170213 5.89147C0.0618955 5.78624 0 5.64343 0 5.49311V3.54643C0 1.92595 1.3648 0.600098 3.03288 0.600098H8.34894C8.6089 0.600098 8.82012 0.805289 8.82012 1.05858V2.98272C8.82012 3.29088 9.08317 3.54643 9.40039 3.54643C9.72534 3.54643 9.98066 3.29088 9.98066 2.98272V1.05858C9.98066 0.805289 10.1919 0.600098 10.4526 0.600098H12.9749C14.646 0.600098 16 1.91542 16 3.53891V5.43298C16 5.5833 15.9381 5.72611 15.8298 5.83134ZM9.40058 9.29609C9.72554 9.29609 9.98085 9.04054 9.98085 8.73238V5.72592C9.98085 5.41776 9.72554 5.16221 9.40058 5.16221C9.08337 5.16221 8.82031 5.41776 8.82031 5.72592V8.73238C8.82031 9.04054 9.08337 9.29609 9.40058 9.29609Z" fill="#F9F8FC"/>
</svg>
